<svg width="32" height="30" viewBox="0 0 32 30" fill="none" xmlns="http://www.w3.org/2000/svg">
<path d="M7.89977 18.9721C7.67465 18.8878 7.43908 18.845 7.19983 18.845C6.41138 18.845 5.68871 19.3176 5.40169 20.0209C5.0149 20.9693 5.50615 22.0429 6.49649 22.4136C6.72161 22.4981 6.95692 22.5406 7.19643 22.5406C7.98488 22.5406 8.70755 22.0684 8.99457 21.365C9.38136 20.416 8.89037 19.3426 7.89977 18.9721Z" fill="white"/>
<path d="M12.7231 21.2141L12.7359 21.0327C12.7571 20.7351 12.751 20.4316 12.7187 20.1307L12.6991 19.9516L14.2692 18.7899C14.3125 18.7574 14.3287 18.7038 14.3086 18.6593L13.5781 17.0636C13.5606 17.0254 13.5199 17.0006 13.4739 17.0006L11.495 17.3203L11.371 17.1857C11.1602 16.9571 10.9312 16.7477 10.6901 16.5623L10.541 16.448L10.8202 14.5006C10.8249 14.4554 10.793 14.4018 10.7426 14.3828L9.05497 13.7517C9.00457 13.7327 8.94241 13.7527 8.90924 13.796L7.7429 15.4011L7.55251 15.3889C7.24225 15.3686 6.92702 15.3736 6.61075 15.4049L6.42454 15.4234L5.2112 13.92C5.17777 13.879 5.1224 13.8625 5.07539 13.8822L3.40836 14.5824C3.36083 14.6024 3.3355 14.6504 3.34516 14.703L3.67683 16.5773L3.53632 16.6962C3.29918 16.8965 3.08033 17.1159 2.88524 17.3483L2.76772 17.4887L0.790725 17.253C0.722302 17.2575 0.682863 17.279 0.666409 17.3191L0.00748975 18.9347C-0.0107919 18.98 0.00540043 19.033 0.0450974 19.059L1.67215 20.1734L1.65936 20.353C1.6382 20.6525 1.64421 20.9556 1.67685 21.2548L1.69644 21.4339L0.126082 22.5963C0.0819447 22.6293 0.0657531 22.6819 0.0863848 22.7266L0.816875 24.3236C0.834112 24.3611 0.875375 24.3856 0.922383 24.3856L2.89991 24.0657L3.02423 24.2005C3.23316 24.4269 3.4622 24.637 3.70511 24.8242L3.8524 24.9377L3.59699 26.8293C3.59202 26.8761 3.62467 26.9306 3.67376 26.9489L5.36193 27.5805C5.41077 27.5983 5.47449 27.5785 5.50766 27.5362L6.65394 25.9851L6.8425 25.9973C7.15302 26.0181 7.46694 26.0126 7.78426 25.9806L7.97047 25.962L9.18382 27.4652C9.21777 27.5072 9.27339 27.5232 9.31962 27.5035L10.9869 26.8038C11.0345 26.7838 11.0598 26.735 11.0501 26.6822L10.7179 24.8079L10.8589 24.689C11.0948 24.4907 11.3136 24.2713 11.5098 24.0374L11.6286 23.8958L13.6634 24.1545C13.7422 24.1542 13.7678 24.1287 13.784 24.0887L14.4435 22.4717C14.4617 22.4272 14.445 22.3737 14.4053 22.3474L12.7231 21.2141ZM9.62203 21.5998C9.23498 22.5481 8.26033 23.1855 7.19635 23.1855C6.87303 23.1855 6.55467 23.1277 6.25118 23.0144C4.91456 22.5141 4.25199 21.0657 4.77375 19.7855C5.1668 18.8222 6.119 18.1996 7.19943 18.1996C7.52275 18.1996 7.84085 18.2573 8.1446 18.3707C9.48123 18.8707 10.1441 20.3193 9.62203 21.5998Z" fill="white"/>
<path d="M17.9573 12.2174L19.1709 13.7206C19.2056 13.7631 19.2604 13.7786 19.3061 13.7594L20.9739 13.06C21.0201 13.0407 21.0463 12.9899 21.0371 12.9374L20.7047 11.0643L20.8457 10.9452C21.0802 10.7479 21.2993 10.5285 21.497 10.2931L21.6164 10.1517L23.6506 10.4104C23.7018 10.4081 23.7553 10.3844 23.7715 10.3446L24.4304 8.7279C24.4487 8.68313 24.4325 8.62959 24.3931 8.60358L22.7099 7.46993L22.7224 7.28857C22.7436 6.9894 22.7378 6.68597 22.7052 6.38654L22.6853 6.20768L24.255 5.04553C24.2999 5.01226 24.3156 4.96048 24.2947 4.91546L23.5642 3.31901C23.5467 3.28099 23.5057 3.25597 23.4594 3.25597L21.4808 3.57566L21.3568 3.44083C21.1479 3.21394 20.9188 3.00407 20.6759 2.81746L20.5273 2.70289L20.8065 0.756282C20.8115 0.710756 20.7793 0.657473 20.7294 0.638966L19.0416 0.00759484C18.9891 -0.0124169 18.9285 0.00884644 18.8958 0.0511213L17.7289 1.65654L17.5386 1.64403C17.2273 1.62377 16.9131 1.62927 16.5968 1.66004L16.4103 1.6788L15.1974 0.175396C15.164 0.134122 15.1089 0.118613 15.0624 0.137624L13.3947 0.83781C13.3474 0.857571 13.3223 0.905849 13.3317 0.958379L13.6634 2.83224L13.5229 2.95106C13.2865 3.15118 13.0672 3.37056 12.8715 3.60348L12.754 3.74356L10.777 3.50842C10.711 3.51042 10.6697 3.53418 10.6535 3.57396L9.99431 5.19064C9.97603 5.23542 9.99222 5.28845 10.0317 5.31422L11.6592 6.42885L11.6465 6.60846C11.6253 6.90663 11.6313 7.20981 11.6639 7.51023L11.6835 7.68909L10.1134 8.85124C10.0693 8.88426 10.0531 8.93679 10.074 8.98182L10.8045 10.5785C10.8217 10.6166 10.8627 10.6408 10.9095 10.6408L12.887 10.3209L13.0113 10.4555C13.2208 10.6833 13.4498 10.8927 13.6922 11.0788L13.8398 11.1924L13.5841 13.0845C13.5786 13.132 13.611 13.1856 13.6617 13.2048L15.3488 13.8354C15.4044 13.8562 15.4618 13.8342 15.495 13.7919L16.6405 12.2405L16.8296 12.253C17.1401 12.2733 17.4543 12.2677 17.7708 12.2365L17.9573 12.2174ZM17.1829 9.4411C16.8593 9.4411 16.5412 9.38332 16.2377 9.26975C14.9011 8.76971 14.2386 7.32135 14.7603 6.04111C15.1534 5.0778 16.1053 4.45516 17.1855 4.45516C17.509 4.45516 17.8271 4.51295 18.1309 4.62651C19.467 5.12631 20.1301 6.57466 19.6083 7.85464C19.215 8.81847 18.2631 9.44104 17.1829 9.44104V9.4411Z" fill="white"/>
<path d="M17.8853 5.22712C17.6602 5.14258 17.4249 5.10005 17.1854 5.10005C16.3969 5.10005 15.6745 5.57232 15.388 6.27571C15.0012 7.22449 15.4925 8.29788 16.4828 8.66834C16.7079 8.75264 16.9432 8.79542 17.1828 8.79542C17.9835 8.79542 18.6891 8.33365 18.9804 7.61975C19.3672 6.67098 18.8756 5.59758 17.8853 5.22712Z" fill="white"/>
<path d="M25.4483 21.3844C25.2232 21.2999 24.9879 21.2573 24.7486 21.2573C23.9596 21.2573 23.2373 21.7296 22.9503 22.433C22.564 23.3818 23.055 24.4552 24.0451 24.8254C24.2707 24.9099 24.5063 24.9527 24.746 24.9527C25.5462 24.9527 26.2519 24.4909 26.5434 23.7768C26.9299 22.828 26.4384 21.7546 25.4483 21.3844Z" fill="white"/>
<path d="M31.9549 24.7605L30.2717 23.626L30.2843 23.4447C30.3054 23.1478 30.2994 22.8443 30.2668 22.5424L30.2474 22.3635L31.8171 21.2014C31.8612 21.1684 31.8771 21.1166 31.8565 21.0721L31.126 19.4751C31.1082 19.4363 31.0683 19.4128 31.0213 19.4128L29.0427 19.7325L28.9186 19.5979C28.7084 19.3698 28.4794 19.1602 28.2377 18.9743L28.0889 18.86L28.3688 16.9129C28.3735 16.8676 28.3417 16.8138 28.2913 16.7955L26.6034 16.1649C26.5488 16.1442 26.4908 16.1659 26.4582 16.2082L25.2913 17.8136L25.1009 17.8014C24.7891 17.7806 24.4741 17.7866 24.1589 17.8179L23.9721 17.8364L22.7593 16.3332C22.7256 16.2917 22.671 16.2757 22.624 16.2955L20.956 16.9956C20.9084 17.0156 20.8836 17.0637 20.8927 17.1162L21.225 18.9901L21.0842 19.1089C20.8497 19.3068 20.6305 19.5264 20.4323 19.7613L20.3145 19.9014L18.3385 19.6657C18.255 19.667 18.2307 19.6915 18.2145 19.731L17.5556 21.348C17.537 21.3933 17.553 21.4458 17.5919 21.4708L19.2197 22.5865L19.2072 22.7661C19.186 23.0652 19.1918 23.3684 19.2244 23.6681L19.2443 23.847L17.6742 25.0091C17.6301 25.0421 17.6139 25.0949 17.6345 25.1397L18.3655 26.7364C18.3828 26.7739 18.4238 26.7979 18.4697 26.7979L20.4483 26.4787L20.5724 26.6131C20.7839 26.8422 21.013 27.0518 21.2533 27.2369L21.4008 27.3503L21.1459 29.2419C21.1404 29.2896 21.1726 29.3432 21.223 29.3619L22.9109 29.9933C22.9597 30.0113 23.0229 29.9918 23.0558 29.9498L24.2028 28.3976L24.3919 28.4099C24.7032 28.4309 25.0174 28.4251 25.3337 28.3939L25.5204 28.3754L26.7333 29.8785C26.7667 29.9195 26.8226 29.9353 26.8696 29.9165L28.5366 29.2169C28.5831 29.1971 28.609 29.1468 28.5998 29.0943L28.2674 27.2215L28.4081 27.1024C28.645 26.903 28.8641 26.6836 29.0592 26.4502L29.1786 26.3086L31.2138 26.5678C31.2775 26.5688 31.318 26.542 31.3339 26.5023L31.9931 24.8848C32.0106 24.8398 31.9944 24.7862 31.9549 24.7605ZM27.1704 24.0115C26.7774 24.9751 25.8255 25.5979 24.7455 25.5979C24.4214 25.5979 24.1036 25.5402 23.7993 25.4266C22.4635 24.927 21.8006 23.4789 22.3219 22.1985C22.7152 21.2351 23.6677 20.6125 24.7478 20.6125C25.0712 20.6125 25.3893 20.6703 25.693 20.7836C27.0294 21.2834 27.6922 22.7316 27.1704 24.0115Z" fill="white"/>
</svg>
